<svg width="100%" viewBox="0 0 520 340" xmlns="http://www.w3.org/2000/svg" font-family="sans-serif">

  <!-- Sfondo principale -->
  <rect width="520" height="340" rx="14" fill="#0a1628"/>
  <rect width="520" height="340" rx="14" fill="none" stroke="rgba(58,110,168,0.3)" stroke-width="1"/>

  <!-- Titlebar -->
  <rect width="520" height="38" rx="14" fill="#0f1f3d"/>
  <rect y="24" width="520" height="14" fill="#0f1f3d"/>
  <rect y="37" width="520" height="1" fill="rgba(58,110,168,0.25)"/>

  <!-- Dots -->
  <circle cx="20" cy="19" r="5" fill="#e05252"/>
  <circle cx="36" cy="19" r="5" fill="#d4a04a"/>
  <circle cx="52" cy="19" r="5" fill="#4caf72"/>

  <!-- Brand -->
  <text x="260" y="23" text-anchor="middle" font-size="11" fill="#6e96c4" letter-spacing="0.06em">Snorlax Dashboard · Nome_Utente</text>

  <!-- CARD 1 — Qualità sonno -->
  <rect x="12" y="50" width="234" height="78" rx="10" fill="#112038" stroke="rgba(58,110,168,0.25)" stroke-width="0.5"/>
  <text x="26" y="68" font-size="8" fill="#6e96c4" letter-spacing="0.1em">QUALITÀ SONNO</text>
  <text x="26" y="108" font-size="44" font-weight="300" fill="#aecfee" letter-spacing="-0.02em">87</text>
  <text x="72" y="108" font-size="14" fill="#6e96c4">%</text>

  <!-- CARD 2 — Ore totali -->
  <rect x="274" y="50" width="234" height="78" rx="10" fill="#112038" stroke="rgba(58,110,168,0.25)" stroke-width="0.5"/>
  <text x="288" y="68" font-size="8" fill="#6e96c4" letter-spacing="0.1em">ORE TOTALI</text>
  <text x="288" y="108" font-size="44" font-weight="300" fill="#aecfee" letter-spacing="-0.02em">7.4</text>
  <text x="336" y="108" font-size="14" fill="#6e96c4">h</text>

  <!-- CARD 3 — Freq. cardiaca -->
  <rect x="12" y="140" width="234" height="78" rx="10" fill="#112038" stroke="rgba(58,110,168,0.25)" stroke-width="0.5"/>
  <text x="26" y="158" font-size="8" fill="#6e96c4" letter-spacing="0.1em">FREQ. CARDIACA</text>
  <text x="26" y="198" font-size="44" font-weight="300" fill="#aecfee" letter-spacing="-0.02em">58</text>
  <text x="72" y="198" font-size="14" fill="#6e96c4">bpm</text>

  <!-- CARD 4 — Sogni rilevati -->
  <rect x="274" y="140" width="234" height="78" rx="10" fill="#112038" stroke="rgba(58,110,168,0.25)" stroke-width="0.5"/>
  <text x="288" y="158" font-size="8" fill="#6e96c4" letter-spacing="0.1em">SOGNI RILEVATI</text>
  <text x="288" y="198" font-size="44" font-weight="300" fill="#aecfee" letter-spacing="-0.02em">3</text>
  <text x="318" y="198" font-size="14" fill="#6e96c4">fase</text>

  <!-- CHART CARD -->
  <rect x="12" y="230" width="496" height="98" rx="10" fill="#112038" stroke="rgba(58,110,168,0.25)" stroke-width="0.5"/>
  <text x="26" y="248" font-size="8" fill="#6e96c4" letter-spacing="0.1em">FASI DEL SONNO — IERI NOTTE</text>

  <!-- Barre statiche (15 barre, altezze: 28,42,55,70,58,65,48,62,72,50,68,44,60,38,52) -->
  <!-- base y = 318, ogni barra larga 24px, gap 9px, start x=26 -->
  <rect x="26"  y="290" width="24" height="28" rx="3" fill="#1e4a80"/>
  <rect x="59"  y="276" width="24" height="42" rx="3" fill="#2a5c99"/>
  <rect x="92"  y="263" width="24" height="55" rx="3" fill="#3a7abf"/>
  <rect x="125" y="248" width="24" height="70" rx="3" fill="#4d9be0"/>
  <rect x="158" y="260" width="24" height="58" rx="3" fill="#3a7abf"/>
  <rect x="191" y="253" width="24" height="65" rx="3" fill="#4d9be0"/>
  <rect x="224" y="270" width="24" height="48" rx="3" fill="#2a5c99"/>
  <rect x="257" y="256" width="24" height="62" rx="3" fill="#4d9be0"/>
  <rect x="290" y="246" width="24" height="72" rx="3" fill="#3a7abf"/>
  <rect x="323" y="268" width="24" height="50" rx="3" fill="#2a5c99"/>
  <rect x="356" y="250" width="24" height="68" rx="3" fill="#4d9be0"/>
  <rect x="389" y="274" width="24" height="44" rx="3" fill="#2a5c99"/>
  <rect x="422" y="258" width="24" height="60" rx="3" fill="#3a7abf"/>
  <rect x="455" y="280" width="24" height="38" rx="3" fill="#1e4a80"/>
  <rect x="488" y="266" width="24" height="52" rx="3" fill="#2a5c99"/>

</svg>
